<svg className="slider-svg-art" viewBox="0 0 54 54" fill="none" xmlns="http://www.w3.org/2000/svg">
                        <path fill-rule="evenodd" clip-rule="evenodd" d="M38.8125 25.3125H20.9486L27.9045 18.36C28.5626 17.7019 28.5626 16.6387 27.9045 15.9637C27.2447 15.3056 26.1765 15.3056 25.5167 15.9637L15.9705 25.515C15.5672 25.92 15.4406 26.4769 15.5334 27C15.4406 27.5231 15.5672 28.08 15.9705 28.485L25.5167 38.0363C26.1765 38.6944 27.2447 38.6944 27.9045 38.0363C28.5626 37.3782 28.5626 36.2981 27.9045 35.64L20.9486 28.6875H38.8125C39.744 28.6875 40.5 27.9281 40.5 27C40.5 26.0719 39.744 25.3125 38.8125 25.3125ZM27 50.625C13.9523 50.625 3.375 40.0444 3.375 27C3.375 13.9556 13.9523 3.375 27 3.375C40.0477 3.375 50.625 13.9556 50.625 27C50.625 40.0444 40.0477 50.625 27 50.625ZM27 0C12.0892 0 0 12.0825 0 27C0 41.9175 12.0892 54 27 54C41.9108 54 54 41.9175 54 27C54 12.0825 41.9108 0 27 0Z" fill="white"/>
                    </svg>