<svg className="slider-svg-art" viewBox="0 0 54 54" fill="none" xmlns="http://www.w3.org/2000/svg">
                        <path fill-rule="evenodd" clip-rule="evenodd" d="M15.1875 25.3125H33.0514L26.0955 18.36C25.4374 17.7019 25.4374 16.6387 26.0955 15.9637C26.7553 15.3056 27.8235 15.3056 28.4833 15.9637L38.0295 25.515C38.4328 25.92 38.5594 26.4769 38.4666 27C38.5594 27.5231 38.4328 28.08 38.0295 28.485L28.4833 38.0363C27.8235 38.6944 26.7553 38.6944 26.0955 38.0363C25.4374 37.3782 25.4374 36.2981 26.0955 35.64L33.0514 28.6875H15.1875C14.256 28.6875 13.5 27.9281 13.5 27C13.5 26.0719 14.256 25.3125 15.1875 25.3125ZM27 50.625C40.0477 50.625 50.625 40.0444 50.625 27C50.625 13.9556 40.0477 3.375 27 3.375C13.9523 3.375 3.375 13.9556 3.375 27C3.375 40.0444 13.9523 50.625 27 50.625ZM27 0C41.9108 0 54 12.0825 54 27C54 41.9175 41.9108 54 27 54C12.0892 54 0 41.9175 0 27C0 12.0825 12.0892 0 27 0Z" fill="white"/>
                    </svg>