<svg width="37" height="29" viewBox="0 0 37 29" fill="none" xmlns="http://www.w3.org/2000/svg">
<path d="M7.25 0V7.25H14.5V0H7.25ZM23.925 7.25V17.4H0.725C0.324075 17.4 0 17.7248 0 18.125V22.475C0 24.0744 1.30065 25.375 2.9 25.375H5.86514C6.21169 27.4289 7.9982 29 10.15 29C12.3018 29 14.0876 27.4289 14.4349 25.375H23.925C24.273 27.4282 26.1225 29 28.275 29C30.4275 29 32.2119 27.4282 32.557 25.375H34.075C35.2133 25.375 36.25 24.3383 36.25 23.2V16.2219C36.25 14.7632 35.1995 13.2737 35.0719 13.0953L32.0586 9.0625C31.3677 8.2302 30.2833 7.25 29 7.25H23.925ZM2.9 8.7V15.95H10.15V8.7H2.9ZM11.6 8.7V15.95H18.85V8.7H11.6ZM27.55 10.875H31.6055L33.9164 13.9563C34.1622 14.3043 34.8 15.3722 34.8 16.2219V16.675H27.55C26.825 16.675 26.1 15.95 26.1 15.225V12.325C26.1 11.5239 26.825 10.875 27.55 10.875ZM10.15 21.75C11.7494 21.75 13.05 23.0507 13.05 24.65C13.05 26.2494 11.7494 27.55 10.15 27.55C8.55065 27.55 7.25 26.2494 7.25 24.65C7.25 23.0507 8.55065 21.75 10.15 21.75ZM28.275 21.75C29.8751 21.75 31.175 23.0499 31.175 24.65C31.175 26.2501 29.8751 27.55 28.275 27.55C26.6749 27.55 25.375 26.2501 25.375 24.65C25.375 23.0499 26.6749 21.75 28.275 21.75Z" fill="#D9D9D9"/>
</svg>
