<svg width="21" height="20" viewBox="0 0 21 20" fill="#7880B5" xmlns="http://www.w3.org/2000/svg" className="svg-like">
                <g clip-path="url(#clip0_203_1038)">
                    <rect x="0.0742188" width="20" height="20" fill="#252525"/>
                    <path d="M10.0742 18.8873C9.78949 18.8873 9.51498 18.7842 9.30106 18.5968C8.4931 17.8903 7.71414 17.2264 7.02689 16.6408L7.02338 16.6377C5.00845 14.9207 3.26849 13.4378 2.05786 11.9771C0.70456 10.3441 0.0742191 8.79578 0.074219 7.10434C0.0742189 5.46097 0.637726 3.94485 1.66083 2.83508C2.69614 1.71219 4.11673 1.09375 5.66138 1.09375C6.81586 1.09375 7.87314 1.45874 8.80377 2.1785C9.27344 2.54181 9.69916 2.98645 10.0742 3.5051C10.4494 2.98645 10.875 2.54181 11.3448 2.1785C12.2755 1.45874 13.3327 1.09375 14.4872 1.09375C16.0317 1.09375 17.4525 1.71219 18.4878 2.83508C19.5109 3.94485 20.0742 5.46097 20.0742 7.10434C20.0742 8.79578 19.444 10.3441 18.0907 11.9769C16.8801 13.4378 15.1403 14.9205 13.1257 16.6374C12.4372 17.224 11.657 17.8889 10.8472 18.5971C10.6335 18.7842 10.3588 18.8873 10.0742 18.8873ZM5.66138 2.26532C4.44785 2.26532 3.33304 2.74963 2.52203 3.62915C1.69897 4.52194 1.24564 5.75607 1.24564 7.10434C1.24564 8.52692 1.77435 9.79919 2.95981 11.2296C4.10559 12.6122 5.80985 14.0645 7.78311 15.7462L7.78677 15.7492C8.47662 16.3371 9.25864 17.0036 10.0725 17.7153C10.8913 17.0023 11.6746 16.3347 12.3658 15.7458C14.3389 14.0642 16.043 12.6122 17.1888 11.2296C18.3741 9.79919 18.9028 8.52692 18.9028 7.10434C18.9028 5.75607 18.4495 4.52194 17.6264 3.62915C16.8156 2.74963 15.7006 2.26532 14.4872 2.26532C13.5982 2.26532 12.782 2.54791 12.0614 3.10516C11.4191 3.60199 10.9717 4.23004 10.7094 4.66949C10.5746 4.89548 10.3371 5.03036 10.0742 5.03036C9.81131 5.03036 9.57388 4.89548 9.439 4.66949C9.17685 4.23004 8.72946 3.60199 8.08707 3.10516C7.36639 2.54791 6.5502 2.26532 5.66138 2.26532Z" />
                </g>
            </svg>