<svg width="20" height="20" viewBox="0 0 20 20" fill="none" xmlns="http://www.w3.org/2000/svg">
<path d="M9.97348 20C9.55643 19.9945 9.1579 19.8265 8.86295 19.5316C8.568 19.2366 8.4 18.8381 8.39453 18.4211V1.57895C8.39453 1.16021 8.56085 0.758526 8.85706 0.462526C9.15306 0.166316 9.55474 0 9.97348 0C10.3922 0 10.7939 0.166316 11.0899 0.462526C11.3861 0.758526 11.5524 1.16021 11.5524 1.57895V18.4211C11.547 18.8381 11.379 19.2366 11.084 19.5316C10.7891 19.8265 10.3905 19.9945 9.97348 20Z" fill="#F6D863"/>
<path d="M18.4211 11.571H1.57895C1.16021 11.571 0.758526 11.4047 0.462526 11.1085C0.166316 10.8125 0 10.4108 0 9.99203C0 9.5733 0.166316 9.17161 0.462526 8.87561C0.758526 8.5794 1.16021 8.41309 1.57895 8.41309H18.4211C18.8398 8.41309 19.2415 8.5794 19.5375 8.87561C19.8337 9.17161 20 9.5733 20 9.99203C20 10.4108 19.8337 10.8125 19.5375 11.1085C19.2415 11.4047 18.8398 11.571 18.4211 11.571Z" fill="#F6D863"/>
<path d="M9.97348 20C9.55643 19.9945 9.1579 19.8265 8.86295 19.5316C8.568 19.2366 8.4 18.8381 8.39453 18.4211V1.57895C8.39453 1.16021 8.56085 0.758526 8.85706 0.462526C9.15306 0.166316 9.55474 0 9.97348 0C10.3922 0 10.7939 0.166316 11.0899 0.462526C11.3861 0.758526 11.5524 1.16021 11.5524 1.57895V18.4211C11.547 18.8381 11.379 19.2366 11.084 19.5316C10.7891 19.8265 10.3905 19.9945 9.97348 20Z" fill="#F6D863"/>
<path d="M18.4211 11.571H1.57895C1.16021 11.571 0.758526 11.4047 0.462526 11.1085C0.166316 10.8125 0 10.4108 0 9.99203C0 9.5733 0.166316 9.17161 0.462526 8.87561C0.758526 8.5794 1.16021 8.41309 1.57895 8.41309H18.4211C18.8398 8.41309 19.2415 8.5794 19.5375 8.87561C19.8337 9.17161 20 9.5733 20 9.99203C20 10.4108 19.8337 10.8125 19.5375 11.1085C19.2415 11.4047 18.8398 11.571 18.4211 11.571Z" fill="#F6D863"/>
</svg>
