<svg width="200" height="200" viewBox="0 0 200 200" fill="none" xmlns="http://www.w3.org/2000/svg">
<path d="M100.001 196.889C153.511 196.889 196.889 153.511 196.889 100.001C196.889 46.4915 153.511 3.11328 100.001 3.11328C46.4915 3.11328 3.11328 46.4915 3.11328 100.001C3.11328 153.511 46.4915 196.889 100.001 196.889Z" fill="#83D8DD"/>
<path d="M80.5148 144.062C69.3113 132.672 49.3934 141.758 44.4137 136.157C39.4344 130.555 45.6586 124.953 54.3727 124.74C63.0867 124.527 57.4848 107.525 48.6699 100.27C39.8551 93.0145 36.3219 104.412 26.3629 100.005C20.8371 97.559 18.8051 78.2848 20.1883 68.7754C21.4203 60.3062 28.4879 50.4441 35.1273 52.1918C41.7668 53.9391 37.493 59.891 42.673 60.2352C47.8531 60.5793 46.1934 53.1055 53.6629 51.309C60.6535 49.6277 75.8813 46.8324 63.2898 10.3164C27.9852 24.784 3.11328 59.4848 3.11328 100C3.11328 108.609 4.24219 116.953 6.34883 124.899C14.7078 131.262 26.4309 129.613 29.0422 138.041C30.0945 141.438 23.7199 145.909 18.1687 151.887C32.4176 174.312 55.6277 190.485 82.7617 195.357C90.9809 175.475 88.093 151.766 80.5148 144.062Z" fill="#7DBF63"/>
<path opacity="0.1" d="M109.346 187.543C55.8367 187.543 12.4582 144.165 12.4582 90.6551C12.4582 66.2789 21.4633 44.007 36.3246 26.9785C15.9738 44.7398 3.11328 70.8672 3.11328 100C3.11328 153.51 46.4918 196.888 100.001 196.888C129.134 196.888 155.261 184.028 173.023 163.677C155.994 178.538 133.723 187.543 109.346 187.543Z" fill="black"/>
<path d="M160.379 24.2285C161.545 34.0133 164.123 45.5277 143.574 42.6723C133.287 41.2426 120.671 44.3844 120.75 55.4695C120.801 62.6285 122.825 82.0238 129.88 82.4387C136.934 82.8535 153.118 85.7133 154.778 73.0789C156.438 60.4445 169.272 54.6523 173.022 59.6234C175.913 63.4559 187.178 76.6117 195.42 83.1238C191.253 59.3984 178.453 38.6496 160.379 24.2285Z" fill="#7DBF63"/>
<path d="M155.61 102.679C147.732 106.655 131.957 114.956 138.596 131.48C145.235 148.004 152.29 161.7 147.725 175.392C146.565 178.874 147.848 181.21 150.403 182.76C176.86 166.614 194.968 138.137 196.743 105.317C185.539 100.526 171.883 94.4655 155.61 102.679Z" fill="#7DBF63"/>
<path opacity="0.2" d="M136.843 10.3711C133.766 14.9695 131.969 20.4973 131.969 26.4453C131.969 42.4301 144.927 55.3879 160.912 55.3879C168.805 55.3879 175.957 52.2242 181.179 47.1004C170.522 30.7816 155.08 17.8758 136.843 10.3711Z" fill="white"/>
<path d="M170.711 29.2891C151.823 10.4016 126.711 0 100 0C73.2891 0 48.1766 10.4016 29.2891 29.2891C10.402 48.1766 0 73.2891 0 100C0 126.711 10.4016 151.823 29.2891 170.711C48.1766 189.598 73.2887 200 99.9996 200C126.711 200 151.823 189.598 170.71 170.711C189.598 151.823 199.999 126.711 199.999 100C200 73.2891 189.598 48.1766 170.711 29.2891ZM164.248 31.6977C164.943 32.3516 165.632 33.0137 166.309 33.6906C177.759 45.1406 185.877 59.032 190.191 74.1891C183.912 67.9422 177.596 60.5223 175.505 57.7496C173.488 55.0746 169.902 54.1051 165.912 55.1578C159.965 56.7262 152.978 62.8762 151.691 72.6742C150.772 79.6664 144.011 80.4832 132.641 79.5293C131.716 79.4516 130.842 79.3781 130.061 79.332C129.259 79.2852 127.319 77.432 125.713 70.7559C124.295 64.8609 123.882 58.3598 123.861 55.448C123.842 52.7859 124.74 50.6969 126.605 49.0609C129.956 46.1227 136.446 44.8254 143.143 45.7559C151.634 46.9352 157.413 45.8766 160.814 42.5195C163.736 39.6375 164.37 35.7305 164.248 31.6977ZM18.7336 146.862C15.8422 141.866 13.4277 136.625 11.5176 131.195C13.2484 131.867 14.9641 132.408 16.5887 132.918C21.9121 134.591 24.9969 135.699 26.0344 138.856C25.8016 140.039 22.677 143.049 20.5965 145.053C20.0027 145.624 19.3734 146.234 18.7336 146.862ZM80.7906 191.812C63.0695 188.142 46.7844 179.403 33.6906 166.309C29.3437 161.962 25.4793 157.262 22.1176 152.275C23.052 151.335 23.993 150.424 24.9148 149.535C29.4379 145.178 33.3441 141.415 32.0137 137.119C29.9961 130.605 24.1289 128.762 18.4543 126.979C15.2242 125.964 11.8957 124.915 9.05156 123.003C7.18594 115.573 6.22422 107.86 6.22422 100C6.22422 74.952 15.9785 51.4023 33.6906 33.6906C41.8316 25.55 51.2074 19.0957 61.393 14.4914C65.5297 27.523 66.1359 36.841 63.1852 42.2094C60.8875 46.3898 56.7266 47.3801 53.3824 48.1758L52.9348 48.2828C47.7145 49.5383 45.7453 53.018 44.4422 55.3207C43.3996 57.1633 43.3098 57.1578 42.8789 57.1293C42.8277 57.1262 42.7832 57.1215 42.7434 57.1172C42.6754 56.8895 42.6008 56.5645 42.5414 56.3051C42.082 54.3035 41.2258 50.5785 35.9195 49.1816C33.1211 48.4449 30.1523 49.0422 27.3324 50.9074C22.3223 54.2223 18.1184 61.3855 17.1082 68.3266C16.3566 73.4891 16.5551 81.0297 17.6125 87.5367C19.0063 96.1144 21.5266 101.266 25.1031 102.85C31.0375 105.477 35.4156 103.566 38.6129 102.171C41.8641 100.753 43.4957 100.041 46.6914 102.671C53.0398 107.896 56.5691 117.604 55.4207 120.932C55.2859 121.323 55.1883 121.606 54.2961 121.628C47.5945 121.792 42.0578 124.675 40.1895 128.975C38.8699 132.012 39.5617 135.383 42.0867 138.224C45.1156 141.632 50.4547 141.417 56.6359 141.17C64.15 140.868 72.6703 140.526 78.2945 146.244C81.5117 149.514 83.8727 156.837 84.4559 165.355C85.0691 174.31 83.768 183.603 80.7906 191.812ZM166.309 166.309C161.507 171.111 156.272 175.323 150.698 178.92C150.293 178.259 150.308 177.48 150.676 176.377C155.06 163.227 149.869 150.666 143.857 136.122C143.079 134.238 142.273 132.288 141.482 130.32C136.483 117.88 145.991 111.019 157.01 105.458C171.067 98.3633 182.961 102.838 193.493 107.315C191.784 129.607 182.286 150.333 166.309 166.309ZM154.205 99.9008C147.007 103.534 127.887 113.183 135.706 132.641C136.509 134.638 137.32 136.602 138.104 138.5C143.639 151.893 148.42 163.46 144.77 174.409C143.816 177.27 144.05 179.922 145.371 182.111C131.641 189.724 116.132 193.776 99.9992 193.776C95.618 193.776 91.2844 193.471 87.0184 192.884C90.0211 184.133 91.3109 174.353 90.6656 164.93C89.9648 154.695 87.0731 146.293 82.7316 141.88C75.1754 134.198 64.3172 134.633 56.3859 134.951C52.5656 135.104 47.8102 135.295 46.7387 134.09C45.4059 132.59 45.7637 131.766 45.8984 131.457C46.6215 129.793 49.8637 127.964 54.4473 127.853C57.7617 127.772 60.2609 125.99 61.3047 122.964C63.7742 115.804 57.6031 103.594 50.6465 97.868C44.5043 92.8125 39.6602 94.9258 36.1227 96.4688C33.2914 97.7043 31.0535 98.6797 27.6215 97.1602C27.023 96.8953 25.0289 94.3762 23.7555 86.541C22.8062 80.7 22.6102 73.741 23.2672 69.225C24.0164 64.0758 27.2398 58.4336 30.7656 56.1012C32.0836 55.2289 33.2832 54.9273 34.334 55.2031C36.0008 55.6418 36.1008 56.0777 36.4734 57.7004C36.8703 59.4289 37.6965 63.0258 42.4652 63.3418C46.8926 63.6402 48.6758 60.4777 49.8578 58.3879C50.9418 56.4723 51.7977 54.9594 54.3879 54.3363L54.8215 54.2328C58.6332 53.3262 65.0117 51.8082 68.6383 45.2094C72.5258 38.1367 72.0461 27.2914 67.1656 12.1152C77.5293 8.24883 88.6078 6.225 99.9988 6.225C121.069 6.225 141.076 13.1285 157.443 25.8629C157.456 25.9711 157.469 26.0773 157.482 26.1863C158.08 30.9438 158.699 35.8625 156.442 38.0898C154.566 39.9422 150.263 40.4609 144 39.5906C133.795 38.173 126.203 41.1355 122.502 44.3812C119.287 47.1996 117.604 51.0426 117.636 55.4926C117.666 59.7512 118.304 66.5727 119.661 72.2121C121.724 80.7895 125.1 85.2762 129.695 85.5465C130.398 85.5879 131.235 85.6582 132.12 85.7324C134.218 85.9082 136.715 86.118 139.319 86.118C141.756 86.1176 144.286 85.934 146.666 85.3676C154.886 83.4109 157.291 77.8262 157.862 73.4852C158.837 66.0617 164.159 62.057 167.498 61.1766C168.914 60.8035 170.105 60.9301 170.535 61.498C173.57 65.5223 184.305 77.9992 192.55 84.8059C193.356 89.7832 193.773 94.8594 193.773 100C193.773 100.227 193.767 100.453 193.765 100.679C182.886 96.182 169.729 92.0656 154.205 99.9008ZM137.37 90.6762C135.651 90.6762 134.258 92.0695 134.258 93.7883V97.2246C134.258 98.9434 135.651 100.337 137.37 100.337C139.089 100.337 140.482 98.9434 140.482 97.2246V93.7883C140.482 92.0695 139.089 90.6762 137.37 90.6762ZM116.182 106.201C114.463 106.201 113.07 107.595 113.07 109.313C113.07 112.058 110.837 114.292 108.092 114.292C105.347 114.292 103.114 112.059 103.114 109.313C103.114 107.595 101.721 106.201 100.002 106.201C98.2824 106.201 96.8895 107.595 96.8895 109.313C96.8895 112.058 94.6563 114.292 91.9113 114.292C89.1664 114.292 86.9328 112.059 86.9328 109.313C86.9328 107.595 85.5398 106.201 83.8207 106.201C82.1016 106.201 80.7086 107.595 80.7086 109.313C80.7086 115.491 85.734 120.516 91.9117 120.516C95.0887 120.516 97.9613 119.187 100.002 117.055C102.043 119.187 104.915 120.516 108.092 120.516C114.27 120.516 119.295 115.491 119.295 109.313C119.295 107.595 117.901 106.201 116.182 106.201ZM62.632 90.6762C60.9129 90.6762 59.5199 92.0695 59.5199 93.7883V97.2246C59.5199 98.9434 60.9129 100.337 62.632 100.337C64.3512 100.337 65.7441 98.9434 65.7441 97.2246V93.7883C65.7445 92.0695 64.3512 90.6762 62.632 90.6762Z" fill="black"/>
</svg>
