<svg width="21" height="20" viewBox="0 0 21 20" fill="#7880B5" xmlns="http://www.w3.org/2000/svg" >
    <path d="M14.3682 16.8745L8.31499 16.8745C5.73077 16.8745 3.62834 14.7721 3.62834 12.1879L3.62834 7.38404C3.62834 4.98174 2.43098 2.75812 0.425444 1.43578C0.0652751 1.19832 -0.03416 0.71388 0.203297 0.353711C0.440754 -0.0064969 0.925158 -0.105971 1.28541 0.131564C2.43028 0.886427 3.35909 1.88203 4.02327 3.0283C4.1668 3.1891 5.32416 4.41583 7.22148 4.41583L16.2162 4.41583C18.6702 4.36993 20.591 6.83265 19.9494 9.20136L18.914 13.3283C18.3901 15.4163 16.5208 16.8745 14.3682 16.8745ZM4.99348 5.53675C5.12334 6.13669 5.19056 6.75528 5.19056 7.38404L5.19056 12.1879C5.19056 13.9107 6.59218 15.3123 8.31499 15.3123L14.3682 15.3123C15.8033 15.3123 17.0495 14.3401 17.3987 12.9482L18.4341 8.8212C18.8154 7.41372 17.6739 5.95082 16.2162 5.97804L7.22144 5.97804C6.36335 5.97804 5.61645 5.79304 4.99348 5.53675ZM7.92443 19.0226C7.92443 18.4833 7.48729 18.0462 6.94805 18.0462C5.6525 18.0978 5.65364 19.9479 6.94805 19.9989C7.48729 19.9989 7.92443 19.5618 7.92443 19.0226ZM15.6965 19.0225C15.6965 18.4833 15.2593 18.0462 14.7201 18.0462C13.4245 18.0978 13.4257 19.9479 14.7201 19.9989C15.2593 19.9989 15.6965 19.5618 15.6965 19.0225ZM16.9973 8.32137C16.9973 7.88996 16.6476 7.54026 16.2162 7.54026L7.53388 7.54026C6.49751 7.5815 6.49829 9.06158 7.53388 9.10248L16.2162 9.10248C16.6476 9.10248 16.9973 8.75277 16.9973 8.32137Z" />
</svg>