 <svg width="21" height="20" viewBox="0 0 21 20" fill="#7880B5" xmlns="http://www.w3.org/2000/svg" >
    <g clip-path="url(#clip0_203_1042)">
    <rect x="0.078125" y="-0.00439453" width="19.9913" height="20" fill="#252525"/>
    <path d="M14.6439 15.9978C10.6487 19.1814 5.0638 18.3005 2.1056 14.6492C-0.749577 11.1241 -0.571012 6.03872 2.52642 2.82017C5.72686 -0.505158 10.7585 -0.949076 14.406 1.77874C15.7128 2.75586 16.6887 3.99895 17.3243 5.50365C17.9636 7.01709 18.1578 8.59172 17.9361 10.2157C17.7151 11.8321 17.0702 13.2725 16.0206 14.6168C16.1055 14.6723 16.1961 14.7123 16.261 14.7772C17.4148 15.926 18.5642 17.0792 19.7181 18.228C19.9915 18.5003 20.1276 18.8174 20.0465 19.1995C19.8854 19.96 18.9801 20.2535 18.3994 19.7315C18.1272 19.4874 17.8768 19.2183 17.6183 18.9598C16.6706 18.0126 15.7234 17.0649 14.7757 16.1177C14.7363 16.0803 14.6951 16.0453 14.6439 15.9978ZM16.0312 8.98194C16.0412 5.12217 12.9251 2.00163 9.05655 1.99601C5.19866 1.9904 2.085 5.08596 2.06814 8.94323C2.05128 12.8124 5.1612 15.9416 9.04157 15.9598C12.8839 15.9779 16.0212 12.8455 16.0312 8.98194Z" />
    </g>
</svg>