<svg width="678" height="309" viewBox="0 0 678 309" fill="none" xmlns="http://www.w3.org/2000/svg">
<circle cx="388" cy="52" r="52" fill="#404461"/>
<circle cx="323.5" cy="113.5" r="64.5" fill="#626890"/>
<g filter="url(#filter0_d_2532_7006)">
<path d="M247.713 109H446.216L668 298H10L247.713 109Z" fill="#0D1115"/>
</g>
<path d="M340.809 72C337.783 72 335.309 74.4744 335.309 77.5V78H334.309V80H338.309V78H337.309V77.5C337.309 75.5556 338.864 74 340.809 74C342.753 74 344.309 75.5556 344.309 77.5V89H342.309V86H338.309L339.309 89H324L324.344 90.2637C326.111 96.7424 331.784 101.21 338.381 101.779L340.404 122H350.213L350.303 121.1L352.236 101.779C358.833 101.21 364.507 96.7424 366.273 90.2637L366.617 89H351.309L352.309 86H348.309V89H346.309V77.5C346.309 74.4744 343.834 72 340.809 72ZM326.855 91H363.762C361.711 96.3291 356.715 100 350.906 100H339.711C333.902 100 328.907 96.3291 326.855 91ZM340.412 102H350.205L348.404 120H342.213L340.412 102Z" fill="#A9A4A4"/>
<path d="M533.892 72H465.514C464.678 72 464 72.6778 464 73.5141V181.681C464 182.517 464.678 183.195 465.514 183.195H467.4V187.485C467.4 188.322 468.078 189 468.914 189H477.495C478.331 189 479.009 188.321 479.009 187.485V183.195H520.398V187.485C520.398 188.322 521.076 189 521.912 189H530.493C531.329 189 532.007 188.321 532.007 187.485V183.195H533.892C534.728 183.195 535.406 182.517 535.406 181.681V73.5141C535.406 72.6778 534.728 72 533.892 72ZM475.98 185.971H470.428V183.195H475.98V185.971ZM528.978 185.971H523.426V183.195H528.978V185.971ZM532.378 180.167H467.029V75.0285H532.378V180.167Z" fill="#A9A4A4"/>
<path d="M470.467 176.679H528.937C529.773 176.679 530.451 176.001 530.451 175.165V80.0307C530.451 79.1944 529.773 78.5166 528.937 78.5166H470.467C469.631 78.5166 468.953 79.1944 468.953 80.0307V175.165C468.953 176.001 469.631 176.679 470.467 176.679ZM471.981 81.5449H527.423V173.651H477.68V138.031H483.351C484.187 138.031 484.865 137.353 484.865 136.517V130.076C484.865 129.24 484.187 128.562 483.351 128.562H477.68V118.707H482.901C485.085 118.707 487.113 117.621 488.326 115.802C488.789 115.106 488.601 114.166 487.906 113.702C487.209 113.238 486.27 113.426 485.806 114.122C485.156 115.097 484.07 115.679 482.901 115.679H477.68V94.4009C477.68 91.8196 479.779 89.7193 482.359 89.7193H498.587C500.727 89.7193 502.533 91.1668 503.087 93.134H494.288C491.521 93.134 489.269 95.3861 489.269 98.1538V100.594C489.269 101.431 489.947 102.109 490.783 102.109H518.779C519.615 102.109 520.293 101.431 520.293 100.594V98.1538C520.293 95.3861 518.04 93.134 515.27 93.134H506.188C505.582 89.4835 502.405 86.6911 498.586 86.6911H482.358C478.109 86.6911 474.651 90.1499 474.651 94.4009V173.651H471.981V81.5449H471.981ZM477.68 135.003V131.59H481.836V135.003H477.68ZM515.271 96.1623C516.37 96.1623 517.265 97.0558 517.265 98.1536V99.0798H492.297V98.1536C492.297 97.0558 493.19 96.1623 494.289 96.1623H515.271Z" fill="#A9A4A4"/>
<path d="M515.604 158.387C514.768 158.387 514.09 159.065 514.09 159.901V168.734C514.09 169.57 514.768 170.248 515.604 170.248C516.44 170.248 517.118 169.57 517.118 168.734V159.901C517.118 159.065 516.44 158.387 515.604 158.387Z" fill="#A9A4A4"/>
<path d="M515.604 131.131C514.768 131.131 514.09 131.809 514.09 132.645V153.34C514.09 154.176 514.768 154.854 515.604 154.854C516.44 154.854 517.118 154.176 517.118 153.34V132.645C517.118 131.809 516.44 131.131 515.604 131.131Z" fill="#A9A4A4"/>
<path d="M515.604 103.874C514.768 103.874 514.09 104.552 514.09 105.388V126.588C514.09 127.424 514.768 128.102 515.604 128.102C516.44 128.102 517.118 127.424 517.118 126.588V105.388C517.118 104.552 516.44 103.874 515.604 103.874Z" fill="#A9A4A4"/>
<path d="M508.198 147.535C507.362 147.535 506.684 148.213 506.684 149.049V168.734C506.684 169.57 507.362 170.248 508.198 170.248C509.034 170.248 509.712 169.57 509.712 168.734V149.049C509.712 148.213 509.034 147.535 508.198 147.535Z" fill="#A9A4A4"/>
<path d="M508.198 120.026C507.362 120.026 506.684 120.705 506.684 121.541V137.945C506.684 138.781 507.362 139.459 508.198 139.459C509.034 139.459 509.712 138.781 509.712 137.945V121.541C509.712 120.705 509.034 120.026 508.198 120.026Z" fill="#A9A4A4"/>
<path d="M508.198 144.936C508.597 144.936 508.988 144.774 509.271 144.492C509.551 144.212 509.712 143.82 509.712 143.422C509.712 143.023 509.551 142.632 509.271 142.351C508.988 142.069 508.597 141.907 508.198 141.907C507.799 141.907 507.411 142.069 507.128 142.351C506.845 142.634 506.684 143.023 506.684 143.422C506.684 143.82 506.845 144.212 507.128 144.492C507.411 144.774 507.799 144.936 508.198 144.936Z" fill="#A9A4A4"/>
<path d="M508.198 103.874C507.362 103.874 506.684 104.552 506.684 105.388V114.726C506.684 115.562 507.362 116.24 508.198 116.24C509.034 116.24 509.712 115.562 509.712 114.726V105.388C509.712 104.552 509.034 103.874 508.198 103.874Z" fill="#A9A4A4"/>
<path d="M500.795 130.121C499.959 130.121 499.281 130.799 499.281 131.635V168.734C499.281 169.57 499.959 170.248 500.795 170.248C501.632 170.248 502.31 169.57 502.31 168.734V131.635C502.31 130.799 501.632 130.121 500.795 130.121Z" fill="#A9A4A4"/>
<path d="M500.795 103.874C499.959 103.874 499.281 104.552 499.281 105.388V125.578C499.281 126.414 499.959 127.092 500.795 127.092C501.632 127.092 502.31 126.414 502.31 125.578V105.388C502.31 104.552 501.632 103.874 500.795 103.874Z" fill="#A9A4A4"/>
<path d="M493.393 159.648C492.557 159.648 491.879 160.327 491.879 161.163V168.734C491.879 169.57 492.557 170.248 493.393 170.248C494.229 170.248 494.907 169.57 494.907 168.734V161.163C494.907 160.327 494.229 159.648 493.393 159.648Z" fill="#A9A4A4"/>
<path d="M493.393 116.24C492.557 116.24 491.879 116.918 491.879 117.754V154.601C491.879 155.437 492.557 156.115 493.393 156.115C494.229 156.115 494.907 155.437 494.907 154.601V117.755C494.907 116.918 494.229 116.24 493.393 116.24Z" fill="#A9A4A4"/>
<path d="M493.393 103.874C492.557 103.874 491.879 104.552 491.879 105.388V111.95C491.879 112.786 492.557 113.464 493.393 113.464C494.229 113.464 494.907 112.786 494.907 111.95V105.388C494.907 104.552 494.229 103.874 493.393 103.874Z" fill="#A9A4A4"/>
<path d="M244 200.332C244 197.581 246.23 195.35 248.982 195.35H413.878V174.963H398.221V184.265C398.221 187.016 395.99 189.247 393.239 189.247C390.488 189.247 388.257 187.016 388.257 184.265V169.982C388.257 167.23 390.488 165 393.239 165H418.859C421.611 165 423.841 167.23 423.841 169.982V195.35H439.018C441.77 195.35 444 197.581 444 200.332C444 231.609 425.201 258.574 398.311 270.532L399.845 271.173C402.383 272.234 403.581 275.152 402.52 277.691C401.721 279.601 399.87 280.752 397.922 280.752C397.281 280.752 396.63 280.628 396.002 280.366L383.868 275.293C378.504 276.484 372.932 277.118 367.214 277.118H320.786C314.011 277.118 307.44 276.232 301.178 274.576L287.329 280.366C286.701 280.628 286.05 280.752 285.41 280.752C283.461 280.752 281.61 279.601 280.812 277.691C279.75 275.152 280.948 272.234 283.487 271.173L287.471 269.507C261.77 257.08 244 230.742 244 200.332ZM320.786 267.154H367.214C402.384 267.154 431.296 239.842 433.852 205.313H254.146C256.703 239.843 285.615 267.154 320.786 267.154Z" fill="#7880B5"/>
<path d="M181.906 106.248C181.906 105.55 182.472 104.99 183.163 104.99C183.861 104.99 184.42 105.557 184.42 106.248V129.27C184.42 129.967 183.854 130.527 183.163 130.527H168.257C167.566 130.534 167 129.967 167 129.276V91.7077C167 90.9686 167.304 90.2917 167.794 89.7943L167.801 89.7874C168.299 89.3039 168.969 89 169.715 89H181.713C182.452 89 183.135 89.3039 183.626 89.8012C184.116 90.2917 184.42 90.9686 184.42 91.7146V94.9057C184.42 95.6034 183.854 96.1629 183.163 96.1629C182.465 96.1629 181.906 95.5965 181.906 94.9057V91.7077C181.906 91.6593 181.885 91.611 181.851 91.5695C181.816 91.535 181.768 91.5143 181.713 91.5143H169.715C169.659 91.5143 169.611 91.535 169.576 91.5695L169.57 91.5764C169.535 91.611 169.514 91.6593 169.514 91.7146V128.019H181.906V106.248ZM181.899 157.99L167.145 129.857C166.827 129.242 167.062 128.489 167.677 128.164C167.863 128.068 168.064 128.019 168.257 128.019V128.012H233.552C234.249 128.012 234.809 128.579 234.809 129.27C234.809 129.318 234.809 129.366 234.802 129.415C234.45 144.431 227.087 148.658 220.891 152.209C217.271 154.288 214.101 156.104 213.507 159.952L213.5 159.986C213.272 161.492 213.396 163.219 213.873 165.174C214.37 167.211 215.247 169.505 216.525 172.053C216.836 172.675 216.581 173.428 215.959 173.739C215.779 173.829 215.586 173.87 215.399 173.87H175.986C175.289 173.87 174.729 173.304 174.729 172.613C174.729 172.371 174.798 172.143 174.923 171.95L181.899 157.99ZM170.336 130.534L184.42 157.396C184.6 157.741 184.614 158.163 184.427 158.536L178.017 171.363H213.41C212.512 169.366 211.856 167.501 211.435 165.775C210.875 163.481 210.737 161.43 211.013 159.62L211.02 159.579C211.801 154.536 215.462 152.437 219.641 150.04C225.111 146.904 231.583 143.188 232.253 130.54H170.336V130.534ZM183.308 159.233C182.61 159.233 182.051 158.667 182.051 157.976C182.051 157.279 182.617 156.719 183.308 156.719H197.047C197.744 156.719 198.304 157.286 198.304 157.976C198.304 158.674 197.737 159.233 197.047 159.233H183.308ZM184.413 129.463C184.31 130.147 183.667 130.623 182.983 130.52C182.3 130.416 181.823 129.774 181.927 129.09C182.127 127.791 182.452 126.617 182.908 125.588C183.384 124.517 183.999 123.612 184.752 122.873C187.197 120.483 190.305 120.539 193.275 120.594C193.538 120.601 193.793 120.601 194.463 120.601H221.374C227.757 120.559 234.83 120.511 234.795 129.58C234.795 130.271 234.236 130.831 233.545 130.831C232.854 130.831 232.295 130.271 232.295 129.58C232.322 123.032 226.575 123.074 221.395 123.108C220.614 123.115 220.635 123.122 220.172 123.122H194.47L193.241 123.101C190.782 123.06 188.205 123.012 186.506 124.676C185.974 125.194 185.546 125.837 185.201 126.603C184.842 127.405 184.579 128.358 184.413 129.463ZM177.589 96.7155C179.544 96.7155 181.125 98.2972 181.125 100.252C181.125 102.207 179.544 103.789 177.589 103.789C175.634 103.789 174.052 102.207 174.052 100.252C174.052 98.2972 175.641 96.7155 177.589 96.7155ZM181.125 101.509C180.428 101.509 179.868 100.943 179.868 100.252C179.868 99.5544 180.435 98.9949 181.125 98.9949H189.608C190.305 98.9949 190.865 99.5613 190.865 100.252C190.865 100.95 190.298 101.509 189.608 101.509H181.125Z" fill="#A9A4A4"/>
<defs>
<filter id="filter0_d_2532_7006" x="0" y="100" width="678" height="209" filterUnits="userSpaceOnUse" color-interpolation-filters="sRGB">
<feFlood flood-opacity="0" result="BackgroundImageFix"/>
<feColorMatrix in="SourceAlpha" type="matrix" values="0 0 0 0 0 0 0 0 0 0 0 0 0 0 0 0 0 0 127 0" result="hardAlpha"/>
<feOffset dy="1"/>
<feGaussianBlur stdDeviation="5"/>
<feComposite in2="hardAlpha" operator="out"/>
<feColorMatrix type="matrix" values="0 0 0 0 0.866113 0 0 0 0 0.802043 0 0 0 0 0.802043 0 0 0 0.44 0"/>
<feBlend mode="normal" in2="BackgroundImageFix" result="effect1_dropShadow_2532_7006"/>
<feBlend mode="normal" in="SourceGraphic" in2="effect1_dropShadow_2532_7006" result="shape"/>
</filter>
</defs>
</svg>
